<svg width="20" height="20" viewBox="0 0 20 20" fill="none" xmlns="http://www.w3.org/2000/svg">
<path d="M8.2808 12.9167C8.20641 12.6283 8.05609 12.3651 7.84548 12.1545C7.63488 11.9439 7.3717 11.7936 7.0833 11.7192L1.9708 10.4009C1.88358 10.3761 1.80681 10.3236 1.75215 10.2512C1.69748 10.1789 1.66791 10.0907 1.66791 10C1.66791 9.90938 1.69748 9.82118 1.75215 9.74884C1.80681 9.6765 1.88358 9.62397 1.9708 9.59921L7.0833 8.28005C7.37159 8.20572 7.63471 8.05552 7.84531 7.84508C8.0559 7.63463 8.20627 7.37162 8.2808 7.08338L9.59914 1.97088C9.62364 1.88331 9.67612 1.80616 9.74857 1.75121C9.82102 1.69625 9.90945 1.6665 10.0004 1.6665C10.0913 1.6665 10.1798 1.69625 10.2522 1.75121C10.3246 1.80616 10.3771 1.88331 10.4016 1.97088L11.7191 7.08338C11.7935 7.37177 11.9439 7.63496 12.1545 7.84556C12.3651 8.05616 12.6282 8.20648 12.9166 8.28088L18.0291 9.59838C18.1171 9.62263 18.1946 9.67505 18.2498 9.74761C18.3051 9.82017 18.335 9.90885 18.335 10C18.335 10.0912 18.3051 10.1799 18.2498 10.2525C18.1946 10.325 18.1171 10.3775 18.0291 10.4017L12.9166 11.7192C12.6282 11.7936 12.3651 11.9439 12.1545 12.1545C11.9439 12.3651 11.7935 12.6283 11.7191 12.9167L10.4008 18.0292C10.3763 18.1168 10.3238 18.1939 10.2514 18.2489C10.1789 18.3038 10.0905 18.3336 9.99955 18.3336C9.90862 18.3336 9.82018 18.3038 9.74774 18.2489C9.67529 18.1939 9.62281 18.1168 9.5983 18.0292L8.2808 12.9167Z" fill="#84CC16"/>
<path d="M16.6667 2.50004V5.83337Z" fill="#84CC16"/>
<path d="M18.3334 4.16671H15Z" fill="#84CC16"/>
<path d="M3.33335 14.1667V15.8334Z" fill="#84CC16"/>
<path d="M4.16669 15H2.50002Z" fill="#84CC16"/>
<path d="M16.6667 2.50004V5.83337M18.3334 4.16671H15M3.33335 14.1667V15.8334M4.16669 15H2.50002M8.2808 12.9167C8.20641 12.6283 8.05609 12.3651 7.84548 12.1545C7.63488 11.9439 7.3717 11.7936 7.0833 11.7192L1.9708 10.4009C1.88358 10.3761 1.80681 10.3236 1.75215 10.2512C1.69748 10.1789 1.66791 10.0907 1.66791 10C1.66791 9.90938 1.69748 9.82118 1.75215 9.74884C1.80681 9.6765 1.88358 9.62397 1.9708 9.59921L7.0833 8.28005C7.37159 8.20572 7.63471 8.05552 7.84531 7.84508C8.0559 7.63463 8.20627 7.37162 8.2808 7.08338L9.59914 1.97088C9.62364 1.88331 9.67612 1.80616 9.74857 1.75121C9.82102 1.69625 9.90945 1.6665 10.0004 1.6665C10.0913 1.6665 10.1798 1.69625 10.2522 1.75121C10.3246 1.80616 10.3771 1.88331 10.4016 1.97088L11.7191 7.08338C11.7935 7.37177 11.9439 7.63496 12.1545 7.84556C12.3651 8.05616 12.6282 8.20648 12.9166 8.28088L18.0291 9.59838C18.1171 9.62263 18.1946 9.67505 18.2498 9.74761C18.3051 9.82017 18.335 9.90885 18.335 10C18.335 10.0912 18.3051 10.1799 18.2498 10.2525C18.1946 10.325 18.1171 10.3775 18.0291 10.4017L12.9166 11.7192C12.6282 11.7936 12.3651 11.9439 12.1545 12.1545C11.9439 12.3651 11.7935 12.6283 11.7191 12.9167L10.4008 18.0292C10.3763 18.1168 10.3238 18.1939 10.2514 18.2489C10.1789 18.3038 10.0905 18.3336 9.99955 18.3336C9.90862 18.3336 9.82018 18.3038 9.74774 18.2489C9.67529 18.1939 9.62281 18.1168 9.5983 18.0292L8.2808 12.9167Z" stroke="#84CC16" stroke-width="1.5" stroke-linecap="round" stroke-linejoin="round"/>
</svg>
