<svg width="20" height="20" viewBox="0 0 20 20" fill="none" xmlns="http://www.w3.org/2000/svg">
<path d="M4.16663 5.83333C4.16663 6.71739 4.51782 7.56523 5.14294 8.19036C5.76806 8.81548 6.6159 9.16667 7.49996 9.16667C8.38401 9.16667 9.23186 8.81548 9.85698 8.19036C10.4821 7.56523 10.8333 6.71739 10.8333 5.83333C10.8333 4.94928 10.4821 4.10143 9.85698 3.47631C9.23186 2.85119 8.38401 2.5 7.49996 2.5C6.6159 2.5 5.76806 2.85119 5.14294 3.47631C4.51782 4.10143 4.16663 4.94928 4.16663 5.83333Z" stroke="currentColor" stroke-width="1.5" stroke-linecap="round" stroke-linejoin="round"/>
<path d="M2.5 17.5V15.8333C2.5 14.9493 2.85119 14.1014 3.47631 13.4763C4.10143 12.8512 4.94928 12.5 5.83333 12.5H9.16667C10.0507 12.5 10.8986 12.8512 11.5237 13.4763C12.1488 14.1014 12.5 14.9493 12.5 15.8333V17.5" stroke="currentColor" stroke-width="1.5" stroke-linecap="round" stroke-linejoin="round"/>
<path d="M13.3334 2.6084C14.0504 2.79198 14.6859 3.20898 15.1397 3.79366C15.5936 4.37833 15.8399 5.09742 15.8399 5.83757C15.8399 6.57771 15.5936 7.2968 15.1397 7.88147C14.6859 8.46615 14.0504 8.88315 13.3334 9.06673" stroke="currentColor" stroke-width="1.5" stroke-linecap="round" stroke-linejoin="round"/>
<path d="M17.5 17.5V15.8333C17.4958 15.0976 17.2483 14.384 16.7961 13.8037C16.3439 13.2233 15.7124 12.8089 15 12.625" stroke="currentColor" stroke-width="2" stroke-linecap="round" stroke-linejoin="round"/>
</svg>
